<?xml version="1.0" standalone="no"?>
<!DOCTYPE svg PUBLIC "-//W3C//DTD SVG 20010904//EN"
 "http://www.w3.org/TR/2001/REC-SVG-20010904/DTD/svg10.dtd">
<svg version="1.0" xmlns="http://www.w3.org/2000/svg"
 width="512.000000pt" height="512.000000pt" viewBox="0 0 512.000000 512.000000"
 preserveAspectRatio="xMidYMid meet">

<g transform="translate(0.000000,512.000000) scale(0.100000,-0.100000)"
fill="#000000" stroke="none">
<path d="M3373 4670 c-39 -24 -50 -59 -35 -117 16 -58 15 -113 -2 -154 -36
-86 -137 -140 -410 -218 -209 -60 -332 -116 -429 -196 -108 -89 -172 -194
-197 -323 -15 -77 -5 -107 43 -127 66 -27 129 15 146 96 41 190 135 258 538
390 120 39 255 90 301 112 187 92 259 225 218 400 -21 88 -39 123 -76 142 -38
20 -58 19 -97 -5z"/>
<path d="M3875 4475 c-22 -21 -25 -33 -25 -103 0 -202 -76 -263 -425 -342
-238 -55 -355 -106 -461 -203 -83 -75 -154 -198 -154 -266 0 -37 52 -81 97
-81 51 1 76 23 108 95 45 103 130 172 270 220 28 9 134 36 237 60 119 28 213
56 260 78 88 41 174 116 210 184 74 135 77 317 7 367 -36 25 -95 21 -124 -9z"/>
<path d="M674 3199 c-10 -16 5 -503 21 -716 52 -662 204 -1076 506 -1373 l80
-79 -43 -5 c-24 -3 -90 -11 -148 -17 -149 -15 -317 -47 -368 -69 -35 -16 -43
-24 -40 -42 4 -31 53 -53 168 -77 571 -115 2182 -116 2754 0 263 53 228 119
-89 169 -66 10 -154 21 -195 25 -41 3 -91 8 -110 11 l-35 4 99 102 c92 95 174
207 238 325 l26 50 85 6 c400 31 695 191 806 440 37 81 51 150 51 250 0 167
-56 303 -172 418 -119 120 -268 192 -500 243 l-28 6 -2 168 -3 167 -1547 3
c-1124 1 -1549 -1 -1554 -9z m841 -296 c-99 -337 -51 -900 125 -1467 16 -55
28 -101 26 -104 -3 -2 -51 40 -106 94 -321 312 -492 732 -507 1245 -3 102 -3
207 1 232 l7 47 234 0 234 0 -14 -47z m2362 -385 c37 -13 74 -38 109 -72 63
-61 84 -121 84 -237 0 -203 -65 -294 -250 -348 -86 -26 -160 -36 -160 -23 0 6
11 57 25 114 28 117 62 342 70 468 9 127 11 133 41 126 14 -4 50 -16 81 -28z"/>
</g>
</svg>
