<?xml version="1.0" standalone="no"?>
<!DOCTYPE svg PUBLIC "-//W3C//DTD SVG 20010904//EN"
 "http://www.w3.org/TR/2001/REC-SVG-20010904/DTD/svg10.dtd">
<svg version="1.0" xmlns="http://www.w3.org/2000/svg"
 width="512.000000pt" height="239.000000pt" viewBox="0 0 512.000000 239.000000"
 preserveAspectRatio="xMidYMid meet">

<g transform="translate(0.000000,239.000000) scale(0.100000,-0.100000)"
fill="#000000" stroke="none">
<path d="M1439 2367 c-19 -12 -44 -42 -56 -67 l-23 -44 0 -1061 0 -1061 23
-44 c12 -25 37 -55 56 -67 l34 -23 1084 0 c1201 0 1115 -5 1170 67 l28 36 0
1086 c0 1078 0 1086 -21 1121 -11 19 -35 45 -54 57 l-33 23 -1087 0 -1087 0
-34 -23z m1469 -502 c30 -16 66 -45 81 -64 75 -95 112 -290 92 -483 -26 -261
-126 -378 -322 -378 -160 0 -267 90 -310 260 -19 74 -19 355 0 430 21 85 61
158 109 200 62 55 110 70 212 67 72 -3 93 -7 138 -32z m-623 -65 l0 -85 -177
-3 c-175 -2 -178 -3 -183 -25 -14 -61 -25 -113 -25 -119 0 -3 26 1 57 9 91 24
193 0 269 -62 136 -112 143 -338 16 -474 -61 -65 -125 -93 -225 -99 -110 -7
-188 12 -248 59 -54 43 -97 110 -106 163 -5 33 -4 35 28 40 19 3 63 7 98 8 64
3 64 3 72 -27 14 -52 58 -85 121 -92 51 -5 57 -3 91 27 53 46 71 133 47 222
-27 97 -162 126 -248 53 -28 -23 -35 -25 -106 -18 -42 3 -79 10 -82 15 -4 7
78 443 91 486 4 10 60 12 257 10 l253 -3 0 -85z m974 -346 c26 -33 30 -148 6
-194 -17 -32 -59 -49 -84 -33 -43 26 -64 127 -40 190 25 67 81 84 118 37z
m145 18 c3 -5 -8 -45 -24 -90 -16 -45 -50 -143 -76 -219 -26 -76 -53 -144 -60
-152 -14 -15 -49 -7 -39 9 3 5 35 96 71 202 36 105 72 207 79 225 13 31 37 43
49 25z m45 -231 c24 -24 35 -77 29 -141 -7 -69 -30 -100 -73 -100 -29 0 -39 6
-56 33 -30 47 -24 165 10 201 29 31 64 33 90 7z m-1595 -431 c23 -8 26 -15 26
-54 0 -44 -12 -67 -25 -46 -9 14 -58 13 -73 -2 -17 -17 -15 -54 5 -73 15 -15
27 -16 73 -4 11 3 16 -6 18 -34 5 -55 -10 -67 -78 -67 -54 0 -60 2 -93 39 -45
50 -55 97 -33 155 19 50 42 74 82 86 40 12 68 12 98 0z m176 -49 l5 -44 22 47
c23 46 23 46 72 46 28 0 52 -4 55 -8 3 -5 -11 -34 -30 -66 -18 -31 -34 -60
-34 -63 0 -3 20 -34 44 -68 24 -35 42 -66 38 -69 -3 -3 -29 -6 -59 -6 -52 0
-53 1 -82 47 l-30 47 -3 -44 -3 -45 -50 0 -50 0 -3 124 c-1 69 0 131 3 138 3
10 19 13 52 11 l48 -3 5 -44z m318 -21 l3 -65 27 65 28 65 49 0 50 0 0 -135 0
-135 -45 0 -45 0 -5 60 -5 60 -27 -63 -27 -63 -48 3 -48 3 -3 124 c-1 69 0
131 3 139 3 9 18 12 47 10 l43 -3 3 -65z m465 63 c3 -5 6 -78 8 -163 l4 -155
-45 0 c-40 0 -45 2 -44 23 0 19 -4 22 -42 22 -37 0 -43 -3 -46 -22 -3 -20 -9
-23 -48 -23 l-45 0 -3 54 c-2 33 3 66 12 86 10 20 16 60 16 102 0 38 3 73 7
76 9 10 221 9 226 0z m167 -43 c4 -36 7 -41 13 -23 18 50 46 73 92 73 24 0 46
-4 50 -9 3 -6 -10 -35 -30 -65 -19 -30 -35 -58 -35 -62 0 -3 21 -35 46 -70 51
-72 48 -77 -32 -72 -46 3 -50 5 -74 48 l-25 45 -5 -45 -5 -45 -50 0 -50 0 -3
124 c-1 69 0 131 3 138 3 10 19 13 52 11 l48 -3 5 -45z m456 -80 c24 -69 42
-131 39 -137 -3 -8 -23 -13 -51 -13 -37 0 -47 4 -51 20 -4 15 -14 20 -39 20
-23 0 -37 -6 -44 -20 -8 -15 -21 -20 -55 -20 -24 0 -46 4 -49 8 -3 5 13 58 35
118 61 170 50 155 115 152 l56 -3 44 -125z"/>
<path d="M2687 1710 c-38 -44 -50 -136 -45 -335 5 -193 18 -244 70 -271 40
-21 91 -11 118 23 36 46 44 99 44 293 1 260 -22 320 -120 320 -34 0 -47 -5
-67 -30z"/>
<path d="M3200 1350 c0 -38 4 -59 10 -55 6 3 10 28 10 55 0 27 -4 52 -10 55
-6 4 -10 -17 -10 -55z"/>
<path d="M3395 1158 c-9 -47 2 -99 16 -77 11 17 11 67 -1 94 -6 17 -9 14 -15
-17z"/>
<path d="M2680 693 c0 -21 -3 -48 -6 -60 -5 -19 -2 -23 15 -23 19 0 21 6 21
60 0 47 -3 60 -15 60 -11 0 -15 -11 -15 -37z"/>
<path d="M3323 670 c-6 -14 -7 -26 -2 -28 18 -7 25 4 18 28 l-6 25 -10 -25z"/>
</g>
</svg>
