<?xml version="1.0" standalone="no"?>
<!DOCTYPE svg PUBLIC "-//W3C//DTD SVG 20010904//EN"
 "http://www.w3.org/TR/2001/REC-SVG-20010904/DTD/svg10.dtd">
<svg version="1.0" xmlns="http://www.w3.org/2000/svg"
 width="512.000000pt" height="512.000000pt" viewBox="0 0 512.000000 512.000000"
 preserveAspectRatio="xMidYMid meet">

<g transform="translate(0.000000,512.000000) scale(0.100000,-0.100000)"
fill="#000000" stroke="none">
<path d="M1652 4599 c-65 -25 -149 -105 -183 -174 l-24 -50 0 -1820 0 -1820
24 -50 c35 -71 118 -149 186 -174 55 -21 68 -21 910 -21 842 0 855 0 910 21
68 25 151 103 186 174 l24 50 0 1820 0 1820 -24 50 c-35 71 -118 149 -186 174
-55 21 -67 21 -913 20 -837 0 -858 -1 -910 -20z m1122 -302 c10 -7 16 -22 14
-33 -3 -18 -14 -19 -213 -19 -199 0 -210 1 -213 19 -8 40 21 46 213 46 134 0
186 -3 199 -13z m656 -1742 l0 -1375 -860 0 -860 0 0 1375 0 1375 860 0 860 0
0 -1375z m-790 -1577 c60 -31 95 -97 85 -160 -21 -122 -181 -167 -263 -74 -66
75 -43 188 48 234 24 12 54 22 65 22 11 0 41 -10 65 -22z"/>
</g>
</svg>
